<svg width="45" height="45" viewBox="0 0 45 45" fill="none" xmlns="http://www.w3.org/2000/svg">
<path d="M18.3945 11.7954L20.7761 11.043" stroke="#5F3FE1" stroke-width="0.0649782" stroke-miterlimit="10"/>
<path d="M20.3555 8.75C20.7748 9.10073 21.1941 9.45145 21.6134 9.80218" stroke="#5F3FE1" stroke-width="0.0649782" stroke-miterlimit="10"/>
<path d="M16.9125 17.8475L24.6637 16.1877L29.4411 17.0176L36.8137 14.0078L38.1367 14.7644L38.6273 19.1668L37.4365 20.2904L38.8675 19.9723L39.124 21.6953L30.9535 28.5427L28.2218 32.7433L21.0324 32.2314L14.4048 35.2228L22.4491 26.9318L20.0391 27.4538L1.79688 40.2635L9.66614 27.7128L13.387 24.079L11.5978 19.8988L11.0136 15.1253L12.0233 13.3125L16.9125 17.8475Z" stroke="white" stroke-width="0.129956" stroke-miterlimit="10"/>
<path d="M16.9374 17.8243L24.6459 16.1726L29.3968 16.9984L31.1697 16.2745L24.0556 3.04883H21.2242L14.4297 15.4976L16.9374 17.8243Z" fill="white"/>
<path d="M35.603 24.5171L30.901 28.4608L28.1856 32.6369L21.0349 32.1271L14.4439 35.1042L22.4455 26.858L20.0477 27.378L1.90727 40.1143L9.73175 27.6349L13.4323 24.0216L11.8263 20.2676L0 41.9312H11.9321L14.9467 36.1319H30.5306L33.5207 41.9312H44.9704L35.603 24.5171Z" fill="white"/>
<path d="M1.65625 40.61L9.7026 27.7778L13.395 24.1686L11.6221 20.017L11.0359 15.225L12.1004 13.3164L17.0223 17.884L24.745 16.2303L29.5121 17.0582L36.8909 14.0464L38.273 14.8376L38.277 14.8723L38.7717 19.3053L37.7397 20.278L38.9956 19.9986L39.2663 21.8338L31.0815 28.6934L28.3377 32.9164L21.1299 32.4026L14.1909 35.5367L22.3248 27.1559L20.1549 27.6269L1.65625 40.61ZM11.7585 19.9884L13.5599 24.2012L9.80845 27.8655L2.1407 40.1002L20.0959 27.4924L20.1101 27.4903L22.7441 26.9194L14.7995 35.1064L21.1035 32.2598L28.2644 32.7696L30.9838 28.5914L39.1177 21.7747L38.8795 20.1658L37.2756 20.5206L38.6251 19.2482L38.1427 14.9212L36.8807 14.1993L29.5264 17.2009L29.506 17.1969L24.745 16.369L16.9775 18.0329L16.951 18.0084L12.133 13.5366L11.1763 15.2495L11.7585 19.9884Z" fill="white"/>
<path d="M11.7936 20.0265L11.6653 19.9735L12.7706 17.3226L11.0547 15.2814L11.1605 15.1917L12.8256 17.1717L13.7802 14.9062L13.9085 14.9613L11.7936 20.0265Z" fill="white"/>
<path d="M16.7147 19.7706L16.6211 19.6666L19.1268 17.3869L21.7933 18.3616L23.094 16.5345L24.3967 17.5847L25.903 16.4102L25.9885 16.5203L24.3947 17.7641L23.1205 16.7364L21.8442 18.5288L19.1594 17.548L16.7147 19.7706Z" fill="white"/>
<path d="M15.5409 22.9762L12.852 22.654L14.112 18.796L12.793 17.3503L12.8968 17.2565L14.2138 18.7002L17.0126 17.9641L16.7378 19.7034L21.8001 18.3759L24.373 17.6052L29.5106 17.0566L29.5248 17.1953L24.4035 17.7418L21.8408 18.5105L16.7948 19.8339L15.5409 22.9762ZM13.0393 22.5358L15.4534 22.8253L16.6625 19.7891L14.2382 18.8694L13.0393 22.5358ZM14.4214 18.7899L16.6136 19.6198L16.8457 18.1516L14.4214 18.7899Z" fill="white"/>
<path d="M12.3194 28.0671L9.6875 27.9651L9.69361 27.8265L12.2176 27.9244L13.4206 24.0439L15.4622 22.8408L18.2244 21.2952L16.6204 19.7679L16.7161 19.668L18.4585 21.3237L15.5314 22.9632L13.5387 24.1377L12.3194 28.0671Z" fill="white"/>
<path d="M4.10326 38.7706L3.96484 38.7522L4.27628 36.3991L7.14023 36.3114L5.73573 34.1968L11.195 33.6014L10.1161 31.2075L10.2423 31.1504L11.4026 33.7197L5.97999 34.311L7.39467 36.4439L4.39841 36.5337L4.10326 38.7706Z" fill="white"/>
<path d="M13.0344 32.4046L12.2304 28.1795L10.2457 31.2505H7.64844V31.1098H10.1704L12.3016 27.8125L13.1708 32.3801L13.0344 32.4046Z" fill="white"/>
<path d="M19.2547 33.1741L16.7734 32.9376L16.7857 32.7989L19.1387 33.0232L19.6313 30.0176L21.1722 32.1933L21.0582 32.2728L19.7147 30.3765L19.2547 33.1741Z" fill="white"/>
<path d="M19.6821 30.116L19.6719 29.9774L24.496 29.5981L22.0697 27.4244L22.1633 27.3184L24.8319 29.7102L19.6821 30.116Z" fill="white"/>
<path d="M24.8422 29.7799L24.7539 29.8867L28.2594 32.7947L28.3477 32.6879L24.8422 29.7799Z" fill="white"/>
<path d="M21.1575 32.3377L21.0781 32.2235L24.7848 29.6685L30.987 28.4858L33.3298 24.3586L33.3441 24.3627L37.2706 20.4395L35.2595 25.1233L33.397 24.5238L31.0786 28.6102L24.8275 29.8011L21.1575 32.3377ZM33.4927 24.4096L35.1801 24.952L36.8553 21.0491L33.4927 24.4096Z" fill="white"/>
<path d="M37.1914 20.447L37.1211 20.5664L39.1565 21.7693L39.2269 21.6499L37.1914 20.447Z" fill="white"/>
<path d="M36.7542 14.0801L35.7344 16.4169L38.2055 14.7836" fill="white"/>
<path d="M36.0309 18.765L35.6055 16.2671L35.8111 16.2324L36.1795 18.3918L38.3758 16.7524L38.5 16.9196L36.0309 18.765Z" fill="white"/>
<path d="M18.3592 21.3356L18.3164 21.2826L21.8073 18.4115L24.2275 17.6855L24.2479 17.7528L21.8338 18.4747L18.3592 21.3356Z" fill="white"/>
<path d="M25.2647 18.8217L24.2998 17.8164L21.9407 18.5077L21.7656 20.2287L25.2647 18.8217Z" fill="white"/>
<path d="M29.3945 17.0726L24.9688 18.7168L25.0169 18.8468L29.4427 17.2026L29.3945 17.0726Z" fill="white"/>
<path d="M19.2892 25.3267L18.3203 21.2648L21.8031 19.9883L21.8499 20.1188L18.4852 21.3545L19.3788 25.1024L24.3556 21.8541L24.4329 21.9723L19.2892 25.3267Z" fill="white"/>
<path d="M24.4437 21.9912L19.3203 21.0348L19.3468 20.8982L24.3439 21.8321L25.2436 18.6348L25.3759 18.6715L24.4437 21.9912Z" fill="white"/>
<path d="M24.3752 22.0099L22.9219 19.7771L23.0379 19.7016L24.4159 21.8142L29.0447 18.6678L27.3389 17.9664L27.3918 17.8379L29.3378 18.6393L24.3752 22.0099Z" fill="white"/>
<path d="M37.2277 20.6533L37.0954 20.6085L38.3493 16.8871L35.8415 16.3447L32.8514 15.8675L29.3666 18.6285L29.3645 18.6244C29.3523 18.6448 29.3381 18.6448 29.3198 18.6428L29.1406 18.6305L29.2587 18.5367C29.2831 18.3756 29.4114 17.5008 29.4826 17.0237L29.621 17.0441L29.507 17.8149C29.4643 18.1003 29.4358 18.29 29.4154 18.4123L32.8127 15.7207L35.8659 16.208L38.5284 16.7851L37.2277 20.6533Z" fill="white"/>
<path d="M33.4459 24.4886L29.8125 23.6403L29.8451 23.5037L29.8675 23.5077L32.8515 18.5078H36.145L37.2095 20.5694L34.2357 21.5808L33.4459 24.4886ZM29.8817 23.5118L33.3461 24.3213L34.0728 21.6501L29.8817 23.5118ZM32.9289 18.6485L30.2013 23.2182L34.1298 21.4727L35.9719 18.6485H32.9289ZM36.0941 18.7178L34.3456 21.3972L37.008 20.4919L36.0941 18.7178Z" fill="white"/>
<path d="M26.0511 25.4435L24.2578 21.7976L29.7496 23.4737L29.2509 18.586L32.8476 18.5085L34.2236 15.9453L34.3458 16.0106L32.9311 18.6471L29.4036 18.7205L29.9084 23.6675L24.5265 22.026L26.1773 25.3823L26.0511 25.4435Z" fill="white"/>
<path d="M29.8915 23.4271L29.7539 23.4551L30.7935 28.5888L30.9311 28.5608L29.8915 23.4271Z" fill="white"/>
<path d="M24.8597 29.6761L24.7274 29.6333L25.9711 25.6019L22.3459 27.0905L22.293 26.962L26.191 25.3613L24.8597 29.6761Z" fill="white"/>
<path d="M30.81 28.5403L26.0938 25.3735L29.7963 23.5098L29.8594 23.6341L26.3706 25.3898L30.8874 28.424L30.81 28.5403Z" fill="white"/>
<path d="M22.2862 27.0445L19.3021 25.2746C18.9113 25.1644 16.5094 23.6351 15.457 22.9581L15.5323 22.8398C16.8961 23.7167 19.1332 25.1175 19.3306 25.142L19.355 25.1379L19.3672 25.1522L22.3554 26.9242L22.2862 27.0445Z" fill="white"/>
<path d="M12.2887 28.0632L12.25 27.9286C13.1639 27.6635 16.0157 26.8418 16.4981 26.7378C16.4594 26.3972 15.8345 24.3275 15.4315 23.0409L15.5638 22.998C16.7261 26.7011 16.6467 26.803 16.6202 26.8377L16.5571 26.8662C16.4187 26.8764 13.9293 27.5881 12.2887 28.0632ZM16.5592 26.7276C16.5531 26.7276 16.549 26.7276 16.5449 26.7296C16.5551 26.7276 16.5632 26.7276 16.5632 26.7276C16.5632 26.7276 16.5612 26.7276 16.5592 26.7276Z" fill="white"/>
<path d="M20.1963 27.6196L16.3594 26.8243L19.3495 25.2012L20.1963 27.6196ZM16.7624 26.7652L19.9846 27.432L19.2742 25.403L16.7624 26.7652Z" fill="white"/>
<path d="M13.039 32.2797C13.0166 32.2349 12.978 32.1513 16.4974 26.7578L16.6134 26.8333C15.2598 28.905 13.2263 32.0595 13.1693 32.2573L13.1143 32.241L13.039 32.2797Z" fill="white"/>
<path d="M22.3522 26.8086L22.2891 26.7821L24.3592 21.8984L24.4243 21.927L22.3522 26.8086Z" fill="white"/>
<path d="M12.1307 28.1543L11.2578 33.6621L11.3262 33.673L12.1991 28.1651L12.1307 28.1543Z" fill="white"/>
<path d="M16.5328 26.7153L13.4531 24.1175L13.4979 24.0645L16.5776 26.6623L16.5328 26.7153Z" fill="white"/>
<path d="M7.34452 36.3783L7.27734 36.362L7.80454 34.0354L7.61117 31.2051L7.66613 31.2316C7.70073 31.2479 10.5464 33.234 11.1163 33.6316L11.0756 33.6887C10.0049 32.9424 8.0488 31.5782 7.68852 31.3315L7.87375 34.0394L7.87171 34.0435L7.34452 36.3783Z" fill="white"/>
<path d="M5.54844 37.6221L4.35156 36.4903L4.39838 36.4414L5.59526 37.5711L5.54844 37.6221Z" fill="white"/>
<path d="M26.1862 25.3459L26.1211 25.3255L26.9618 22.6216L29.1581 18.7656L29.2191 18.8003L27.0249 22.6501L26.1862 25.3459Z" fill="white"/>
<path d="M28.2663 32.4906L28.0872 29.1158L26.125 25.478L26.1861 25.4434L28.1564 29.1036L28.3356 32.4865L28.2663 32.4906Z" fill="white"/>
<path d="M14.3124 18.9256L14.2461 18.9453L15.367 22.732L15.4334 22.7122L14.3124 18.9256Z" fill="white"/>
<path d="M30.4637 25.7924H30.4535L26.4375 25.4254L26.4436 25.354L30.4515 25.7211L33.2381 24.416L33.2666 24.4792L30.4637 25.7924Z" fill="white"/>
<path d="M29.9226 23.4892L29.8555 23.4729L30.9811 18.838L32.7398 16.0098L32.8008 16.0465L31.0422 18.8707L29.9226 23.4892Z" fill="white"/>
<path d="M16.5992 26.8776L16.5312 26.8906L17.0571 29.6548L17.1251 29.6418L16.5992 26.8776Z" fill="white"/>
<path d="M11.755 25.9164L11.6875 25.9316L12.1222 27.8673L12.1897 27.8521L11.755 25.9164Z" fill="white"/>
<path d="M24.3925 22.2572C24.6308 22.2572 24.824 22.0636 24.824 21.8249C24.824 21.5861 24.6308 21.3926 24.3925 21.3926C24.1541 21.3926 23.9609 21.5861 23.9609 21.8249C23.9609 22.0636 24.1541 22.2572 24.3925 22.2572Z" fill="white"/>
<path d="M22.1147 27.4358C22.3204 27.4358 22.4872 27.2687 22.4872 27.0626C22.4872 26.8565 22.3204 26.6895 22.1147 26.6895C21.909 26.6895 21.7422 26.8565 21.7422 27.0626C21.7422 27.2687 21.909 27.4358 22.1147 27.4358Z" fill="white"/>
<path d="M27.0157 22.9389C27.2034 22.9389 27.3556 22.7864 27.3556 22.5983C27.3556 22.4103 27.2034 22.2578 27.0157 22.2578C26.828 22.2578 26.6758 22.4103 26.6758 22.5983C26.6758 22.7864 26.828 22.9389 27.0157 22.9389Z" fill="white"/>
<path d="M16.5719 27.1588C16.7799 27.1588 16.9485 26.9899 16.9485 26.7815C16.9485 26.5732 16.7799 26.4043 16.5719 26.4043C16.3639 26.4043 16.1953 26.5732 16.1953 26.7815C16.1953 26.9899 16.3639 27.1588 16.5719 27.1588Z" fill="white"/>
<path d="M10.1631 31.3973C10.2834 31.3973 10.3809 31.2996 10.3809 31.1791C10.3809 31.0586 10.2834 30.9609 10.1631 30.9609C10.0428 30.9609 9.94531 31.0586 9.94531 31.1791C9.94531 31.2996 10.0428 31.3973 10.1631 31.3973Z" fill="white"/>
<path d="M24.6604 30.2429C24.9842 30.2429 25.2467 29.98 25.2467 29.6556C25.2467 29.3313 24.9842 29.0684 24.6604 29.0684C24.3367 29.0684 24.0742 29.3313 24.0742 29.6556C24.0742 29.98 24.3367 30.2429 24.6604 30.2429Z" fill="white"/>
<path d="M32.9351 18.9045C33.1149 18.9045 33.2607 18.7584 33.2607 18.5782C33.2607 18.398 33.1149 18.252 32.9351 18.252C32.7552 18.252 32.6094 18.398 32.6094 18.5782C32.6094 18.7584 32.7552 18.9045 32.9351 18.9045Z" fill="white"/>
<path d="M30.2996 26.0201C30.4435 26.0201 30.5602 25.9032 30.5602 25.759C30.5602 25.6149 30.4435 25.498 30.2996 25.498C30.1557 25.498 30.0391 25.6149 30.0391 25.759C30.0391 25.9032 30.1557 26.0201 30.2996 26.0201Z" fill="white"/>
<path d="M15.4942 23.2536C15.7348 23.2536 15.9298 23.0582 15.9298 22.8172C15.9298 22.5762 15.7348 22.3809 15.4942 22.3809C15.2536 22.3809 15.0586 22.5762 15.0586 22.8172C15.0586 23.0582 15.2536 23.2536 15.4942 23.2536Z" fill="white"/>
<path d="M37.1556 20.877C37.3602 20.877 37.5261 20.7109 37.5261 20.5059C37.5261 20.3009 37.3602 20.1348 37.1556 20.1348C36.951 20.1348 36.7852 20.3009 36.7852 20.5059C36.7852 20.7109 36.951 20.877 37.1556 20.877Z" fill="white"/>
</svg>
